# Blender v2.66 (sub 0) OBJ File: ''
o Capsule
v 0.097545 0.500000 -0.490393
v 0.191342 0.500000 -0.461940
v 0.461940 -0.500000 -0.191342
v 0.500000 -0.500000 0.000000
v 0.490393 -0.500000 0.097545
v 0.461940 -0.500000 0.191342
v 0.277785 -0.500000 0.415735
v 0.191342 -0.500000 0.461940
v 0.191342 0.500000 0.461940
v 0.097545 -0.500000 0.490393
v -0.000000 -0.500000 0.500000
v -0.000000 0.500000 0.500000
v -0.097545 -0.500000 0.490393
v -0.191342 -0.500000 0.461940
v -0.191342 0.500000 0.461940
v -0.277785 -0.500000 0.415735
v -0.277785 0.500000 0.415735
v -0.353553 -0.500000 0.353553
v -0.353553 0.500000 0.353553
v -0.415735 -0.500000 0.277785
v -0.461940 -0.500000 0.191342
v -0.461940 0.500000 0.191342
v -0.490393 -0.500000 0.097545
v -0.490393 0.500000 0.097545
v -0.500000 0.500000 -0.000000
v -0.490393 -0.500000 -0.097545
v -0.490393 0.500000 -0.097545
v -0.461940 -0.500000 -0.191342
v -0.353553 -0.500000 -0.353553
v -0.353553 0.500000 -0.353553
v -0.097545 0.500000 -0.490393
v 0.000000 0.961940 -0.191342
v 0.000000 0.915735 -0.277785
v 0.000000 0.853553 -0.353553
v 0.000000 0.777785 -0.415735
v 0.000000 0.691342 -0.461940
v 0.000000 0.597545 -0.490393
v 0.019030 0.990393 -0.095671
v 0.037329 0.961940 -0.187665
v 0.054193 0.915735 -0.272448
v 0.068975 0.853553 -0.346760
v 0.081106 0.777785 -0.407747
v 0.090120 0.691342 -0.453064
v 0.095671 0.597545 -0.480970
v 0.037329 0.990393 -0.090120
v 0.073223 0.961940 -0.176777
v 0.106304 0.915735 -0.256640
v 0.135299 0.853553 -0.326641
v 0.159095 0.777785 -0.384089
v 0.176777 0.691342 -0.426777
v 0.187665 0.597545 -0.453064
v 0.054193 0.990393 -0.081106
v 0.106304 0.961940 -0.159095
v 0.154329 0.915735 -0.230970
v 0.196424 0.853553 -0.293969
v 0.230970 0.777785 -0.345671
v 0.256640 0.691342 -0.384089
v 0.272448 0.597545 -0.407747
v 0.277785 0.500000 -0.415735
v 0.135299 0.961940 -0.135299
v 0.196424 0.915735 -0.196424
v 0.250000 0.853553 -0.250000
v 0.293969 0.777785 -0.293969
v 0.326641 0.691342 -0.326641
v 0.346760 0.597545 -0.346760
v 0.353553 0.500000 -0.353553
v 0.081106 0.990393 -0.054193
v 0.159095 0.961940 -0.106304
v 0.230970 0.915735 -0.154329
v 0.293969 0.853553 -0.196424
v 0.345671 0.777785 -0.230970
v 0.384089 0.691342 -0.256640
v 0.407747 0.597545 -0.272447
v 0.415735 0.500000 -0.277785
v 0.176777 0.961940 -0.073223
v 0.256640 0.915735 -0.106304
v 0.326641 0.853553 -0.135299
v 0.384089 0.777785 -0.159095
v 0.426777 0.691342 -0.176777
v 0.453064 0.597545 -0.187665
v 0.461940 0.500000 -0.191342
v 0.187665 0.961940 -0.037329
v 0.272448 0.915735 -0.054193
v 0.346760 0.853553 -0.068975
v 0.407746 0.777785 -0.081106
v 0.453064 0.691342 -0.090120
v 0.480970 0.597545 -0.095671
v 0.490393 0.500000 -0.097545
v 0.097545 0.990393 0.000000
v 0.191342 0.961940 0.000000
v 0.277785 0.915735 0.000000
v 0.353553 0.853553 0.000000
v 0.415735 0.777785 0.000000
v 0.461940 0.691342 0.000000
v 0.490393 0.597545 0.000000
v 0.500000 0.500000 0.000000
v 0.187665 0.961940 0.037329
v 0.272447 0.915735 0.054193
v 0.346760 0.853553 0.068975
v 0.407746 0.777785 0.081106
v 0.453064 0.691342 0.090120
v 0.480970 0.597545 0.095671
v 0.490392 0.500000 0.097545
v 0.090120 0.990393 0.037329
v 0.176777 0.961940 0.073223
v 0.256640 0.915735 0.106304
v 0.326641 0.853553 0.135299
v 0.384089 0.777785 0.159095
v 0.426777 0.691342 0.176777
v 0.453064 0.597545 0.187665
v 0.461940 0.500000 0.191342
v 0.159095 0.961940 0.106304
v 0.230970 0.915735 0.154329
v 0.293969 0.853553 0.196424
v 0.345671 0.777785 0.230970
v 0.384089 0.691342 0.256640
v 0.407746 0.597545 0.272448
v 0.415735 0.500000 0.277785
v 0.068975 0.990393 0.068975
v 0.135299 0.961940 0.135299
v 0.196424 0.915735 0.196424
v 0.250000 0.853553 0.250000
v 0.293969 0.777785 0.293969
v 0.326641 0.691342 0.326641
v 0.346760 0.597545 0.346760
v 0.353553 0.500000 0.353553
v 0.106304 0.961940 0.159095
v 0.154329 0.915735 0.230970
v 0.196424 0.853553 0.293969
v 0.230970 0.777785 0.345671
v 0.256640 0.691342 0.384089
v 0.272447 0.597545 0.407746
v 0.277785 0.500000 0.415735
v 0.073223 0.961940 0.176777
v 0.106304 0.915735 0.256640
v 0.135299 0.853553 0.326641
v 0.159095 0.777785 0.384089
v 0.176777 0.691342 0.426777
v 0.187665 0.597545 0.453064
v 0.019030 0.990393 0.095671
v 0.037329 0.961940 0.187665
v 0.054193 0.915735 0.272448
v 0.068975 0.853553 0.346760
v 0.081106 0.777785 0.407746
v 0.090120 0.691342 0.453064
v 0.095671 0.597545 0.480970
v 0.097545 0.500000 0.490392
v 0.000000 0.990393 0.097545
v -0.000000 0.961940 0.191342
v -0.000000 0.915735 0.277785
v 0.000000 0.853553 0.353553
v -0.000000 0.777785 0.415735
v 0.000000 0.691342 0.461940
v -0.000000 0.597545 0.490392
v -0.037329 0.961940 0.187665
v -0.054193 0.915735 0.272447
v -0.068975 0.853553 0.346760
v -0.081106 0.777785 0.407746
v -0.090120 0.691342 0.453064
v -0.095671 0.597545 0.480970
v -0.097545 0.500000 0.490392
v -0.037329 0.990393 0.090120
v -0.073223 0.961940 0.176777
v -0.106304 0.915735 0.256640
v -0.135299 0.853553 0.326641
v -0.159095 0.777785 0.384089
v -0.176777 0.691342 0.426777
v -0.187665 0.597545 0.453064
v -0.106304 0.961940 0.159095
v -0.154329 0.915735 0.230970
v -0.196424 0.853553 0.293969
v -0.230970 0.777785 0.345671
v -0.256640 0.691342 0.384089
v -0.272447 0.597545 0.407746
v -0.135299 0.961940 0.135299
v -0.196424 0.915735 0.196424
v -0.250000 0.853553 0.250000
v -0.293969 0.777785 0.293969
v -0.326641 0.691342 0.326641
v -0.346760 0.597545 0.346760
v -0.081106 0.990393 0.054193
v -0.159095 0.961940 0.106304
v -0.230970 0.915735 0.154329
v -0.293969 0.853553 0.196424
v -0.345671 0.777785 0.230970
v -0.384089 0.691342 0.256640
v -0.407746 0.597545 0.272447
v -0.415735 0.500000 0.277785
v -0.000000 1.000000 0.000000
v -0.176777 0.961940 0.073223
v -0.256640 0.915735 0.106304
v -0.326641 0.853553 0.135299
v -0.384089 0.777785 0.159095
v -0.426777 0.691342 0.176777
v -0.453064 0.597545 0.187665
v -0.095671 0.990393 0.019030
v -0.187665 0.961940 0.037329
v -0.272447 0.915735 0.054193
v -0.346760 0.853553 0.068975
v -0.407746 0.777785 0.081106
v -0.453064 0.691342 0.090120
v -0.480970 0.597545 0.095671
v -0.097545 0.990393 0.000000
v -0.191342 0.961940 0.000000
v -0.277785 0.915735 -0.000000
v -0.353553 0.853553 0.000000
v -0.415735 0.777785 0.000000
v -0.461940 0.691342 0.000000
v -0.490392 0.597545 -0.000000
v -0.095671 0.990393 -0.019030
v -0.187665 0.961940 -0.037329
v -0.272447 0.915735 -0.054193
v -0.346760 0.853553 -0.068975
v -0.407746 0.777785 -0.081106
v -0.453064 0.691342 -0.090120
v -0.480970 0.597545 -0.095671
v -0.176777 0.961940 -0.073223
v -0.256640 0.915735 -0.106304
v -0.326641 0.853553 -0.135299
v -0.384089 0.777785 -0.159095
v -0.426777 0.691342 -0.176777
v -0.453063 0.597545 -0.187665
v -0.461939 0.500000 -0.191342
v -0.159095 0.961940 -0.106304
v -0.230970 0.915735 -0.154329
v -0.293969 0.853553 -0.196424
v -0.345671 0.777785 -0.230970
v -0.384089 0.691342 -0.256640
v -0.407746 0.597545 -0.272447
v -0.415734 0.500000 -0.277785
v -0.068975 0.990393 -0.068975
v -0.135299 0.961940 -0.135299
v -0.196424 0.915735 -0.196424
v -0.250000 0.853553 -0.250000
v -0.293969 0.777785 -0.293969
v -0.326641 0.691342 -0.326641
v -0.346760 0.597545 -0.346760
v -0.106304 0.961940 -0.159095
v -0.154329 0.915735 -0.230970
v -0.196424 0.853553 -0.293969
v -0.230970 0.777785 -0.345671
v -0.256640 0.691342 -0.384089
v -0.272447 0.597545 -0.407746
v -0.277785 0.500000 -0.415734
v -0.037329 0.990393 -0.090120
v -0.073223 0.961940 -0.176777
v -0.106304 0.915735 -0.256640
v -0.135299 0.853553 -0.326641
v -0.159095 0.777785 -0.384089
v -0.176777 0.691342 -0.426777
v -0.187665 0.597545 -0.453063
v -0.191341 0.500000 -0.461939
v -0.037329 0.961940 -0.187665
v -0.054193 0.915735 -0.272447
v -0.068975 0.853553 -0.346760
v -0.081106 0.777785 -0.407746
v -0.090120 0.691342 -0.453064
v -0.095671 0.597545 -0.480970
v 0.000000 0.500000 -0.499999
v -0.000000 -0.990393 -0.097545
v -0.000000 -0.961940 -0.191342
v -0.000000 -0.915735 -0.277785
v -0.000000 -0.853553 -0.353553
v -0.000000 -0.777785 -0.415735
v -0.000000 -0.691342 -0.461940
v -0.000000 -0.597545 -0.490393
v -0.037329 -0.961940 -0.187665
v -0.054193 -0.915735 -0.272448
v -0.068975 -0.853553 -0.346760
v -0.081106 -0.777785 -0.407747
v -0.090120 -0.691342 -0.453064
v -0.095671 -0.597545 -0.480970
v -0.097545 -0.500000 -0.490393
v -0.037329 -0.990393 -0.090120
v -0.073224 -0.961940 -0.176777
v -0.106304 -0.915735 -0.256640
v -0.135299 -0.853553 -0.326641
v -0.159095 -0.777785 -0.384089
v -0.176777 -0.691342 -0.426777
v -0.187665 -0.597545 -0.453064
v -0.191342 -0.500000 -0.461940
v -0.106304 -0.961940 -0.159095
v -0.154329 -0.915735 -0.230970
v -0.196424 -0.853553 -0.293969
v -0.230970 -0.777785 -0.345671
v -0.256640 -0.691342 -0.384089
v -0.272448 -0.597545 -0.407747
v -0.277785 -0.500000 -0.415735
v -0.135299 -0.961940 -0.135299
v -0.196424 -0.915735 -0.196424
v -0.250000 -0.853553 -0.250000
v -0.293969 -0.777785 -0.293969
v -0.326641 -0.691342 -0.326641
v -0.346760 -0.597545 -0.346760
v -0.081106 -0.990393 -0.054193
v -0.159095 -0.961940 -0.106304
v -0.230970 -0.915735 -0.154329
v -0.293969 -0.853553 -0.196424
v -0.345671 -0.777785 -0.230970
v -0.384089 -0.691342 -0.256640
v -0.407747 -0.597545 -0.272447
v -0.415735 -0.500000 -0.277785
v -0.176777 -0.961940 -0.073223
v -0.256640 -0.915735 -0.106304
v -0.326641 -0.853553 -0.135299
v -0.384089 -0.777785 -0.159095
v -0.426777 -0.691342 -0.176777
v -0.453064 -0.597545 -0.187665
v -0.187665 -0.961940 -0.037329
v -0.272448 -0.915735 -0.054193
v -0.346760 -0.853553 -0.068975
v -0.407747 -0.777785 -0.081106
v -0.453064 -0.691342 -0.090120
v -0.480970 -0.597545 -0.095671
v -0.097545 -0.990393 0.000000
v -0.191342 -0.961940 0.000000
v -0.277785 -0.915735 0.000000
v -0.353554 -0.853553 0.000000
v -0.415735 -0.777785 0.000000
v -0.461940 -0.691342 0.000000
v -0.490393 -0.597545 0.000000
v -0.500000 -0.500000 0.000000
v -0.187665 -0.961940 0.037329
v -0.272448 -0.915735 0.054193
v -0.346760 -0.853553 0.068975
v -0.407747 -0.777785 0.081106
v -0.453064 -0.691342 0.090120
v -0.480970 -0.597545 0.095671
v -0.090120 -0.990393 0.037329
v -0.176777 -0.961940 0.073223
v -0.256640 -0.915735 0.106304
v -0.326641 -0.853553 0.135299
v -0.384089 -0.777785 0.159095
v -0.426777 -0.691342 0.176777
v -0.453064 -0.597545 0.187665
v -0.159095 -0.961940 0.106304
v -0.230970 -0.915735 0.154329
v -0.293969 -0.853553 0.196424
v -0.345671 -0.777785 0.230970
v -0.384089 -0.691342 0.256640
v -0.407747 -0.597545 0.272448
v -0.068975 -0.990393 0.068975
v -0.135299 -0.961940 0.135299
v -0.196424 -0.915735 0.196424
v -0.250000 -0.853553 0.250000
v -0.293969 -0.777785 0.293969
v -0.326641 -0.691342 0.326641
v -0.346760 -0.597545 0.346760
v -0.106304 -0.961940 0.159095
v -0.154329 -0.915735 0.230970
v -0.196424 -0.853553 0.293969
v -0.230970 -0.777785 0.345671
v -0.256640 -0.691342 0.384089
v -0.272447 -0.597545 0.407746
v -0.073224 -0.961940 0.176777
v -0.106304 -0.915735 0.256640
v -0.135299 -0.853553 0.326641
v -0.159095 -0.777785 0.384089
v -0.176777 -0.691342 0.426777
v -0.187665 -0.597545 0.453064
v -0.019030 -0.990393 0.095671
v -0.037329 -0.961940 0.187665
v -0.054193 -0.915735 0.272448
v -0.068975 -0.853553 0.346760
v -0.081106 -0.777785 0.407746
v -0.090120 -0.691342 0.453064
v -0.095671 -0.597545 0.480970
v -0.000000 -0.961940 0.191342
v -0.000000 -0.915735 0.277785
v -0.000000 -0.853553 0.353553
v -0.000000 -0.777785 0.415735
v -0.000000 -0.691342 0.461940
v -0.000000 -0.597545 0.490392
v 0.019030 -0.990393 0.095671
v 0.037329 -0.961940 0.187665
v 0.054193 -0.915735 0.272447
v 0.068975 -0.853553 0.346760
v 0.081106 -0.777785 0.407746
v 0.090120 -0.691342 0.453064
v 0.095671 -0.597545 0.480970
v 0.073223 -0.961940 0.176777
v 0.106304 -0.915735 0.256640
v 0.135299 -0.853553 0.326641
v 0.159095 -0.777785 0.384089
v 0.176777 -0.691342 0.426777
v 0.187665 -0.597545 0.453064
v 0.054193 -0.990393 0.081106
v 0.106304 -0.961940 0.159095
v 0.154329 -0.915735 0.230970
v 0.196424 -0.853553 0.293969
v 0.230970 -0.777785 0.345671
v 0.256640 -0.691342 0.384089
v 0.272447 -0.597545 0.407746
v 0.135299 -0.961940 0.135299
v 0.196423 -0.915735 0.196424
v 0.250000 -0.853553 0.250000
v 0.293969 -0.777785 0.293969
v 0.326641 -0.691342 0.326641
v 0.346760 -0.597545 0.346760
v 0.353553 -0.500000 0.353553
v 0.081106 -0.990393 0.054193
v 0.159095 -0.961940 0.106304
v 0.230970 -0.915735 0.154329
v 0.293969 -0.853553 0.196424
v 0.345671 -0.777785 0.230970
v 0.384089 -0.691342 0.256640
v 0.407746 -0.597545 0.272447
v 0.415735 -0.500000 0.277785
v -0.000000 -1.000000 0.000000
v 0.176776 -0.961940 0.073223
v 0.256640 -0.915735 0.106304
v 0.326640 -0.853554 0.135299
v 0.384089 -0.777785 0.159095
v 0.426776 -0.691342 0.176777
v 0.453063 -0.597545 0.187665
v 0.095671 -0.990393 0.019030
v 0.187665 -0.961940 0.037329
v 0.272447 -0.915735 0.054193
v 0.346760 -0.853554 0.068975
v 0.407746 -0.777785 0.081106
v 0.453063 -0.691342 0.090120
v 0.480970 -0.597545 0.095671
v 0.097545 -0.990393 0.000000
v 0.191341 -0.961940 0.000000
v 0.277785 -0.915735 -0.000000
v 0.353553 -0.853554 0.000000
v 0.415734 -0.777785 0.000000
v 0.461940 -0.691342 0.000000
v 0.490392 -0.597545 -0.000000
v 0.187665 -0.961940 -0.037329
v 0.272447 -0.915735 -0.054193
v 0.346760 -0.853554 -0.068975
v 0.407746 -0.777785 -0.081106
v 0.453063 -0.691342 -0.090120
v 0.480970 -0.597545 -0.095671
v 0.490392 -0.500000 -0.097545
v 0.090120 -0.990393 -0.037329
v 0.176776 -0.961940 -0.073223
v 0.256640 -0.915735 -0.106304
v 0.326640 -0.853554 -0.135299
v 0.384089 -0.777785 -0.159095
v 0.426776 -0.691342 -0.176777
v 0.453063 -0.597545 -0.187665
v 0.159095 -0.961940 -0.106304
v 0.230970 -0.915735 -0.154329
v 0.293969 -0.853553 -0.196424
v 0.345671 -0.777785 -0.230970
v 0.384089 -0.691342 -0.256640
v 0.407746 -0.597545 -0.272447
v 0.415734 -0.500000 -0.277785
v 0.068975 -0.990393 -0.068975
v 0.135299 -0.961940 -0.135299
v 0.196423 -0.915735 -0.196424
v 0.250000 -0.853553 -0.250000
v 0.293969 -0.777785 -0.293969
v 0.326641 -0.691342 -0.326641
v 0.346760 -0.597545 -0.346760
v 0.353553 -0.500000 -0.353553
v 0.054193 -0.990393 -0.081106
v 0.106303 -0.961940 -0.159095
v 0.154329 -0.915735 -0.230970
v 0.196423 -0.853553 -0.293969
v 0.230970 -0.777785 -0.345671
v 0.256640 -0.691342 -0.384089
v 0.272447 -0.597545 -0.407746
v 0.277785 -0.500000 -0.415734
v 0.037329 -0.990393 -0.090120
v 0.073223 -0.961940 -0.176777
v 0.106303 -0.915735 -0.256640
v 0.135299 -0.853553 -0.326641
v 0.159095 -0.777785 -0.384089
v 0.176776 -0.691342 -0.426777
v 0.187665 -0.597545 -0.453063
v 0.191341 -0.500000 -0.461939
v 0.037329 -0.961940 -0.187665
v 0.054193 -0.915735 -0.272447
v 0.068975 -0.853553 -0.346760
v 0.081106 -0.777785 -0.407746
v 0.090120 -0.691342 -0.453064
v 0.095671 -0.597545 -0.480970
v 0.097545 -0.500000 -0.490392
v -0.000000 -0.500000 -0.499999
vt 1.000000 0.500000
vt 1.000000 1.000000
vt 0.968750 1.000000
vt 0.968750 0.500000
vt 0.937500 1.000000
vt 0.937500 0.500000
vt 0.906250 1.000000
vt 0.906250 0.500000
vt 0.875000 1.000000
vt 0.875000 0.500000
vt 0.843750 1.000000
vt 0.843750 0.500000
vt 0.812500 1.000000
vt 0.812500 0.500000
vt 0.781250 1.000000
vt 0.781250 0.500000
vt 0.750000 1.000000
vt 0.750000 0.500000
vt 0.718750 1.000000
vt 0.718750 0.500000
vt 0.687500 1.000000
vt 0.687500 0.500000
vt 0.656250 1.000000
vt 0.656250 0.500000
vt 0.625000 1.000000
vt 0.625000 0.500000
vt 0.593750 1.000000
vt 0.593750 0.500000
vt 0.562500 1.000000
vt 0.562500 0.500000
vt 0.531250 1.000000
vt 0.531250 0.500000
vt 0.500000 1.000000
vt 0.500000 0.500000
vt 0.468750 1.000000
vt 0.468750 0.500000
vt 0.437500 1.000000
vt 0.437500 0.500000
vt 0.406250 1.000000
vt 0.406250 0.500000
vt 0.375000 1.000000
vt 0.375000 0.500000
vt 0.343750 1.000000
vt 0.343750 0.500000
vt 0.312500 1.000000
vt 0.312500 0.500000
vt 0.281250 1.000000
vt 0.281250 0.500000
vt 0.250000 1.000000
vt 0.250000 0.500000
vt 0.218750 1.000000
vt 0.218750 0.500000
vt 0.187500 1.000000
vt 0.187500 0.500000
vt 0.156250 1.000000
vt 0.156250 0.500000
vt 0.125000 1.000000
vt 0.125000 0.500000
vt 0.093750 1.000000
vt 0.093750 0.500000
vt 0.062500 1.000000
vt 0.062500 0.500000
vt 0.031250 1.000000
vt 0.031250 0.500000
vt 0.000000 1.000000
vt 0.000000 0.500000
vt 0.750000 0.750000
vt 0.750000 0.812500
vt 0.718750 0.812500
vt 0.718750 0.750000
vt 0.750000 0.687500
vt 0.718750 0.687500
vt 0.750000 0.625000
vt 0.718750 0.625000
vt 0.750000 0.562500
vt 0.718750 0.562500
vt 0.750000 0.500000
vt 0.718750 0.500000
vt 0.375000 0.937500
vt 0.437500 0.937500
vt 0.265625 1.000000
vt 0.250000 0.937500
vt 0.281250 0.937500
vt 0.375000 0.937500
vt 0.281250 0.937500
vt 0.281250 0.875000
vt 0.312500 0.875000
vt 0.343750 0.875000
vt 0.375000 0.875000
vt 0.750000 0.875000
vt 0.718750 0.875000
vt 0.687500 0.875000
vt 0.687500 0.812500
vt 0.687500 0.750000
vt 0.687500 0.687500
vt 0.687500 0.625000
vt 0.687500 0.562500
vt 0.687500 0.500000
vt 1.000000 0.937500
vt 0.968750 0.937500
vt 0.968750 0.875000
vt 0.000000 0.875000
vt 0.031250 0.875000
vt 0.031250 0.937500
vt 0.656250 0.625000
vt 0.656250 0.562500
vt 0.656250 0.500000
vt 0.656250 0.875000
vt 0.656250 0.812500
vt 0.656250 0.750000
vt 0.656250 0.687500
vt 0.625000 0.812500
vt 0.625000 0.750000
vt 0.625000 0.687500
vt 0.625000 0.625000
vt 0.625000 0.562500
vt 0.625000 0.500000
vt 0.437500 0.937500
vt 0.406250 0.875000
vt 0.437500 0.875000
vt 0.625000 0.875000
vt 0.593750 0.562500
vt 0.593750 0.500000
vt 0.593750 0.875000
vt 0.593750 0.812500
vt 0.593750 0.750000
vt 0.593750 0.687500
vt 0.593750 0.625000
vt 0.562500 0.812500
vt 0.562500 0.750000
vt 0.562500 0.687500
vt 0.562500 0.625000
vt 0.562500 0.562500
vt 0.562500 0.500000
vt 0.093750 0.937500
vt 0.031250 0.937500
vt 0.000000 0.937500
vt 0.000000 0.875000
vt 0.031250 0.875000
vt 0.062500 0.875000
vt 0.093750 0.875000
vt 0.562500 0.875000
vt 0.531250 0.562500
vt 0.531250 0.500000
vt 0.531250 0.875000
vt 0.531250 0.812500
vt 0.531250 0.750000
vt 0.531250 0.687500
vt 0.531250 0.625000
vt 0.500000 0.750000
vt 0.500000 0.687500
vt 0.500000 0.625000
vt 0.500000 0.562500
vt 0.500000 0.500000
vt 0.500000 0.875000
vt 0.500000 0.812500
vt 0.156250 0.937500
vt 0.125000 0.875000
vt 0.156250 0.875000
vt 0.468750 0.875000
vt 0.468750 0.812500
vt 0.468750 0.750000
vt 0.468750 0.687500
vt 0.468750 0.625000
vt 0.468750 0.562500
vt 0.468750 0.500000
vt 0.437500 0.687500
vt 0.437500 0.625000
vt 0.437500 0.562500
vt 0.437500 0.500000
vt 0.437500 0.875000
vt 0.437500 0.812500
vt 0.437500 0.750000
vt 0.406250 0.875000
vt 0.406250 0.812500
vt 0.406250 0.750000
vt 0.406250 0.687500
vt 0.406250 0.625000
vt 0.406250 0.562500
vt 0.406250 0.500000
vt 0.375000 0.687500
vt 0.375000 0.625000
vt 0.375000 0.562500
vt 0.375000 0.500000
vt 0.375000 0.875000
vt 0.375000 0.812500
vt 0.375000 0.750000
vt 0.343750 0.875000
vt 0.343750 0.812500
vt 0.343750 0.750000
vt 0.343750 0.687500
vt 0.343750 0.625000
vt 0.343750 0.562500
vt 0.343750 0.500000
vt 0.187500 0.937500
vt 0.187500 0.875000
vt 0.218750 0.875000
vt 0.250000 0.875000
vt 0.281250 0.875000
vt 0.312500 0.625000
vt 0.312500 0.562500
vt 0.312500 0.500000
vt 0.656250 0.937500
vt 0.593750 0.937500
vt 0.312500 0.875000
vt 0.312500 0.812500
vt 0.312500 0.750000
vt 0.312500 0.687500
vt 0.281250 0.812500
vt 0.281250 0.750000
vt 0.281250 0.687500
vt 0.281250 0.625000
vt 0.281250 0.562500
vt 0.281250 0.500000
vt 0.859375 1.000000
vt 0.843750 0.937500
vt 0.875000 0.937500
vt 0.937500 0.937500
vt 0.250000 0.625000
vt 0.250000 0.562500
vt 0.250000 0.500000
vt 0.093750 0.937500
vt 0.093750 0.875000
vt 0.125000 0.875000
vt 0.156250 0.875000
vt 0.250000 0.812500
vt 0.250000 0.750000
vt 0.250000 0.687500
vt 0.218750 0.812500
vt 0.218750 0.750000
vt 0.218750 0.687500
vt 0.218750 0.625000
vt 0.218750 0.562500
vt 0.218750 0.500000
vt 0.218750 0.937500
vt 0.218750 0.875000
vt 0.250000 0.875000
vt 0.187500 0.562500
vt 0.187500 0.500000
vt 0.187500 0.812500
vt 0.187500 0.750000
vt 0.187500 0.687500
vt 0.187500 0.625000
vt 0.156250 0.750000
vt 0.156250 0.687500
vt 0.156250 0.625000
vt 0.156250 0.562500
vt 0.156250 0.500000
vt 0.718750 0.937500
vt 0.812500 0.937500
vt 0.875000 0.937500
vt 0.703125 1.000000
vt 0.687500 0.937500
vt 0.781250 0.875000
vt 0.812500 0.875000
vt 0.156250 0.812500
vt 0.062500 0.875000
vt 0.125000 0.812500
vt 0.125000 0.750000
vt 0.125000 0.687500
vt 0.125000 0.625000
vt 0.125000 0.562500
vt 0.125000 0.500000
vt 0.093750 0.750000
vt 0.093750 0.687500
vt 0.093750 0.625000
vt 0.093750 0.562500
vt 0.093750 0.500000
vt 0.093750 0.812500
vt 0.062500 0.812500
vt 0.062500 0.750000
vt 0.062500 0.687500
vt 0.062500 0.625000
vt 0.062500 0.562500
vt 0.062500 0.500000
vt 0.031250 0.687500
vt 0.031250 0.625000
vt 0.031250 0.562500
vt 0.031250 0.500000
vt 0.031250 0.812500
vt 0.031250 0.750000
vt 0.000000 0.812500
vt 0.000000 0.750000
vt 0.000000 0.687500
vt 0.000000 0.625000
vt 0.000000 0.562500
vt 0.000000 0.500000
vt 1.000000 0.625000
vt 1.000000 0.687500
vt 0.968750 0.687500
vt 0.968750 0.625000
vt 1.000000 0.562500
vt 0.968750 0.562500
vt 1.000000 0.500000
vt 0.968750 0.500000
vt 0.453125 1.000000
vt 0.500000 0.937500
vt 1.000000 0.812500
vt 1.000000 0.875000
vt 0.968750 0.812500
vt 1.000000 0.750000
vt 0.968750 0.750000
vt 0.937500 0.875000
vt 0.937500 0.812500
vt 0.937500 0.750000
vt 0.937500 0.687500
vt 0.937500 0.625000
vt 0.937500 0.562500
vt 0.937500 0.500000
vt 0.843750 0.875000
vt 0.875000 0.875000
vt 0.906250 0.625000
vt 0.906250 0.562500
vt 0.906250 0.500000
vt 0.906250 0.875000
vt 0.906250 0.812500
vt 0.906250 0.750000
vt 0.906250 0.687500
vt 0.875000 0.812500
vt 0.875000 0.750000
vt 0.875000 0.687500
vt 0.875000 0.625000
vt 0.875000 0.562500
vt 0.875000 0.500000
vt 0.687500 0.937500
vt 0.593750 0.937500
vt 0.593750 0.875000
vt 0.625000 0.875000
vt 0.656250 0.875000
vt 0.687500 0.875000
vt 0.843750 0.562500
vt 0.843750 0.500000
vt 0.843750 0.812500
vt 0.843750 0.750000
vt 0.843750 0.687500
vt 0.843750 0.625000
vt 0.812500 0.812500
vt 0.812500 0.750000
vt 0.812500 0.687500
vt 0.812500 0.625000
vt 0.812500 0.562500
vt 0.812500 0.500000
vt 0.781250 0.562500
vt 0.781250 0.500000
vt 0.500000 0.937500
vt 0.468750 0.875000
vt 0.500000 0.875000
vt 0.781250 0.812500
vt 0.781250 0.750000
vt 0.781250 0.687500
vt 0.781250 0.625000
vt 0.750000 0.750000
vt 0.750000 0.812500
vt 0.718750 0.812500
vt 0.718750 0.750000
vt 0.750000 0.687500
vt 0.718750 0.687500
vt 0.750000 0.625000
vt 0.718750 0.625000
vt 0.750000 0.562500
vt 0.718750 0.562500
vt 0.750000 0.500000
vt 0.718750 0.500000
vt 0.750000 0.875000
vt 0.718750 0.875000
vt 0.687500 0.812500
vt 0.687500 0.750000
vt 0.687500 0.687500
vt 0.687500 0.625000
vt 0.687500 0.562500
vt 0.687500 0.500000
vt 0.656250 0.625000
vt 0.656250 0.562500
vt 0.656250 0.500000
vt 1.000000 0.937500
vt 0.937500 0.875000
vt 0.968750 0.875000
vt 1.000000 0.875000
vt 0.656250 0.812500
vt 0.656250 0.750000
vt 0.656250 0.687500
vt 0.625000 0.812500
vt 0.625000 0.750000
vt 0.625000 0.687500
vt 0.625000 0.625000
vt 0.625000 0.562500
vt 0.625000 0.500000
vt 0.593750 0.562500
vt 0.593750 0.500000
vt 0.593750 0.812500
vt 0.593750 0.750000
vt 0.593750 0.687500
vt 0.593750 0.625000
vt 0.562500 0.812500
vt 0.562500 0.750000
vt 0.562500 0.687500
vt 0.562500 0.625000
vt 0.562500 0.562500
vt 0.562500 0.500000
vt 0.562500 0.875000
vt 0.531250 0.562500
vt 0.531250 0.500000
vt 0.531250 0.875000
vt 0.531250 0.812500
vt 0.531250 0.750000
vt 0.531250 0.687500
vt 0.531250 0.625000
vt 0.500000 0.750000
vt 0.500000 0.687500
vt 0.500000 0.625000
vt 0.500000 0.562500
vt 0.500000 0.500000
vt 0.046875 1.000000
vt 0.500000 0.812500
vt 0.468750 0.812500
vt 0.468750 0.750000
vt 0.468750 0.687500
vt 0.468750 0.625000
vt 0.468750 0.562500
vt 0.468750 0.500000
vt 0.296875 1.000000
vt 0.437500 0.687500
vt 0.437500 0.625000
vt 0.437500 0.562500
vt 0.437500 0.500000
vt 0.437500 0.812500
vt 0.437500 0.750000
vt 0.187500 0.875000
vt 0.406250 0.812500
vt 0.406250 0.750000
vt 0.406250 0.687500
vt 0.406250 0.625000
vt 0.406250 0.562500
vt 0.406250 0.500000
vt 0.375000 0.687500
vt 0.375000 0.625000
vt 0.375000 0.562500
vt 0.375000 0.812500
vt 0.375000 0.750000
vt 0.343750 0.812500
vt 0.343750 0.750000
vt 0.343750 0.687500
vt 0.343750 0.625000
vt 0.343750 0.562500
vt 0.343750 0.500000
vt 0.750000 0.937500
vt 0.812500 0.937500
vt 0.703125 1.000000
vt 0.812500 0.875000
vt 0.843750 0.875000
vt 0.875000 0.875000
vt 0.312500 0.625000
vt 0.312500 0.562500
vt 0.312500 0.500000
vt 0.312500 0.812500
vt 0.312500 0.750000
vt 0.312500 0.687500
vt 0.281250 0.812500
vt 0.281250 0.750000
vt 0.281250 0.687500
vt 0.281250 0.625000
vt 0.281250 0.562500
vt 0.281250 0.500000
vt 0.250000 0.625000
vt 0.250000 0.562500
vt 0.250000 0.500000
vt 0.453125 1.000000
vt 0.250000 0.812500
vt 0.250000 0.750000
vt 0.250000 0.687500
vt 0.218750 0.812500
vt 0.218750 0.750000
vt 0.218750 0.687500
vt 0.218750 0.625000
vt 0.218750 0.562500
vt 0.218750 0.500000
vt 0.187500 0.562500
vt 0.187500 0.500000
vt 0.187500 0.812500
vt 0.187500 0.750000
vt 0.187500 0.687500
vt 0.187500 0.625000
vt 0.156250 0.750000
vt 0.156250 0.687500
vt 0.156250 0.625000
vt 0.156250 0.562500
vt 0.156250 0.500000
vt 0.156250 0.812500
vt 0.890625 1.000000
vt 0.125000 0.812500
vt 0.125000 0.750000
vt 0.125000 0.687500
vt 0.125000 0.625000
vt 0.125000 0.562500
vt 0.125000 0.500000
vt 0.093750 0.750000
vt 0.093750 0.687500
vt 0.093750 0.625000
vt 0.093750 0.562500
vt 0.093750 0.500000
vt 0.093750 0.812500
vt 0.906250 0.875000
vt 0.062500 0.812500
vt 0.062500 0.750000
vt 0.062500 0.687500
vt 0.062500 0.625000
vt 0.062500 0.562500
vt 0.062500 0.500000
vt 0.015625 1.000000
vt 0.000000 0.937500
vt 0.031250 0.687500
vt 0.031250 0.625000
vt 0.031250 0.562500
vt 0.031250 0.500000
vt 0.031250 0.812500
vt 0.031250 0.750000
vt 0.000000 0.812500
vt 0.000000 0.750000
vt 0.000000 0.687500
vt 0.000000 0.625000
vt 0.000000 0.562500
vt 0.000000 0.500000
vt 1.000000 0.625000
vt 1.000000 0.687500
vt 0.968750 0.687500
vt 0.968750 0.625000
vt 1.000000 0.562500
vt 0.968750 0.562500
vt 1.000000 0.500000
vt 0.968750 0.500000
vt 1.000000 0.812500
vt 0.968750 0.812500
vt 1.000000 0.750000
vt 0.968750 0.750000
vt 0.937500 0.812500
vt 0.937500 0.750000
vt 0.937500 0.687500
vt 0.937500 0.625000
vt 0.937500 0.562500
vt 0.937500 0.500000
vt 0.906250 0.625000
vt 0.906250 0.562500
vt 0.906250 0.500000
vt 0.906250 0.812500
vt 0.906250 0.750000
vt 0.906250 0.687500
vt 0.875000 0.812500
vt 0.875000 0.750000
vt 0.875000 0.687500
vt 0.875000 0.625000
vt 0.875000 0.562500
vt 0.843750 0.562500
vt 0.843750 0.500000
vt 0.843750 0.812500
vt 0.843750 0.750000
vt 0.843750 0.687500
vt 0.843750 0.625000
vt 0.812500 0.812500
vt 0.812500 0.750000
vt 0.812500 0.687500
vt 0.812500 0.625000
vt 0.812500 0.562500
vt 0.812500 0.500000
vt 0.781250 0.562500
vt 0.781250 0.500000
vt 0.781250 0.875000
vt 0.781250 0.812500
vt 0.781250 0.750000
vt 0.781250 0.687500
vt 0.781250 0.625000
vn 0.0980 -0.0000 -0.9952
vn 0.2903 -0.0000 -0.9569
vn 0.4714 -0.0000 -0.8819
vn 0.6344 -0.0000 -0.7730
vn 0.7730 -0.0000 -0.6344
vn 0.8819 -0.0000 -0.4714
vn 0.9569 -0.0000 -0.2903
vn 0.9952 -0.0000 -0.0980
vn 0.9952 0.0000 0.0980
vn 0.9569 0.0000 0.2903
vn 0.8819 -0.0000 0.4714
vn 0.7730 -0.0000 0.6344
vn 0.6344 0.0000 0.7730
vn 0.4714 0.0000 0.8819
vn 0.2903 0.0000 0.9569
vn 0.0980 0.0000 0.9952
vn -0.0980 0.0000 0.9952
vn -0.2903 0.0000 0.9569
vn -0.4714 0.0000 0.8819
vn -0.6344 0.0000 0.7730
vn -0.7730 0.0000 0.6344
vn -0.8819 0.0000 0.4714
vn -0.9569 0.0000 0.2903
vn -0.9952 -0.0000 0.0980
vn -0.9952 -0.0000 -0.0980
vn -0.9569 0.0000 -0.2903
vn -0.8819 0.0000 -0.4714
vn -0.7730 0.0000 -0.6344
vn -0.6344 0.0000 -0.7730
vn -0.4714 0.0000 -0.8819
vn -0.2903 0.0000 -0.9569
vn -0.0980 0.0000 -0.9952
vn 0.0624 0.7715 -0.6332
vn 0.0759 0.6326 -0.7708
vn 0.0865 0.4696 -0.8786
vn 0.0938 0.2890 -0.9527
vn 0.0975 0.0975 -0.9904
vn 0.0534 0.9954 0.0799
vn -0.1336 -0.9590 0.2500
vn 0.0464 0.8810 -0.4709
vn 0.1374 0.8810 -0.4528
vn 0.1847 0.7715 -0.6088
vn 0.2248 0.6326 -0.7412
vn 0.2563 0.4696 -0.8448
vn 0.2779 0.2890 -0.9161
vn 0.2889 0.0975 -0.9524
vn -0.2903 0.9569 0.0000
vn 0.4513 0.2890 -0.8443
vn 0.4691 0.0975 -0.8777
vn 0.2230 0.8810 -0.4173
vn 0.2999 0.7715 -0.5611
vn 0.3651 0.6326 -0.6831
vn 0.4162 0.4696 -0.7786
vn 0.4036 0.7715 -0.4918
vn 0.4913 0.6326 -0.5987
vn 0.5601 0.4696 -0.6825
vn 0.6073 0.2890 -0.7400
vn 0.6314 0.0975 -0.7693
vn -0.2399 -0.9575 0.1603
vn 0.3002 0.8810 -0.3658
vn 0.7693 0.0975 -0.6314
vn 0.3658 0.8810 -0.3002
vn 0.4918 0.7715 -0.4036
vn 0.5987 0.6326 -0.4913
vn 0.6825 0.4696 -0.5601
vn 0.7400 0.2890 -0.6073
vn 0.5611 0.7715 -0.2999
vn 0.6831 0.6326 -0.3651
vn 0.7786 0.4696 -0.4162
vn 0.8443 0.2890 -0.4513
vn 0.8777 0.0975 -0.4691
vn 0.2746 -0.9579 0.0833
vn 0.4173 0.8810 -0.2231
vn 0.9524 0.0975 -0.2889
vn 0.4528 0.8810 -0.1374
vn 0.6088 0.7715 -0.1847
vn 0.7412 0.6326 -0.2248
vn 0.8448 0.4696 -0.2563
vn 0.9161 0.2890 -0.2779
vn 0.7708 0.6326 -0.0759
vn 0.8786 0.4696 -0.0865
vn 0.9527 0.2890 -0.0938
vn 0.9904 0.0975 -0.0975
vn 0.4709 0.8810 -0.0464
vn 0.6332 0.7715 -0.0624
vn 0.2040 -0.9575 0.2040
vn 0.4709 0.8810 0.0464
vn 0.6332 0.7715 0.0624
vn 0.7708 0.6326 0.0759
vn 0.8786 0.4696 0.0865
vn 0.9527 0.2890 0.0938
vn 0.9904 0.0975 0.0976
vn 0.8448 0.4696 0.2563
vn 0.9161 0.2890 0.2779
vn 0.9524 0.0975 0.2889
vn 0.4528 0.8810 0.1374
vn 0.6088 0.7715 0.1847
vn 0.7412 0.6326 0.2248
vn 0.4173 0.8810 0.2230
vn 0.5611 0.7715 0.2999
vn 0.6831 0.6326 0.3651
vn 0.7786 0.4696 0.4162
vn 0.8443 0.2890 0.4513
vn 0.8777 0.0975 0.4691
vn 0.6825 0.4696 0.5601
vn 0.7400 0.2890 0.6073
vn 0.7693 0.0975 0.6314
vn 0.3658 0.8810 0.3002
vn 0.4918 0.7715 0.4036
vn 0.5987 0.6326 0.4913
vn 0.3002 0.8810 0.3658
vn 0.4036 0.7715 0.4918
vn 0.4913 0.6326 0.5987
vn 0.5601 0.4696 0.6825
vn 0.6073 0.2890 0.7400
vn 0.6314 0.0975 0.7693
vn -0.0281 0.9579 0.2856
vn 0.4513 0.2890 0.8443
vn 0.4691 0.0975 0.8777
vn 0.2040 0.9575 -0.2040
vn 0.2230 0.8810 0.4173
vn 0.2999 0.7715 0.5611
vn 0.3651 0.6326 0.6831
vn 0.4162 0.4696 0.7786
vn 0.1374 0.8810 0.4528
vn 0.1847 0.7715 0.6088
vn 0.2248 0.6326 0.7412
vn 0.2563 0.4696 0.8448
vn 0.2779 0.2890 0.9161
vn 0.2889 0.0975 0.9524
vn 0.0871 -0.9955 -0.0361
vn 0.0938 0.2890 0.9527
vn 0.0976 0.0975 0.9904
vn -0.1799 0.9590 0.2192
vn 0.0464 0.8810 0.4709
vn 0.0624 0.7715 0.6332
vn 0.0759 0.6326 0.7708
vn 0.0865 0.4696 0.8786
vn -0.0624 0.7715 0.6332
vn -0.0759 0.6326 0.7708
vn -0.0865 0.4696 0.8786
vn -0.0938 0.2890 0.9527
vn -0.0976 0.0975 0.9904
vn 0.0000 -0.9575 0.2885
vn -0.0464 0.8810 0.4709
vn -0.2889 0.0975 0.9524
vn -0.1374 0.8810 0.4528
vn -0.1847 0.7715 0.6088
vn -0.2248 0.6326 0.7412
vn -0.2563 0.4696 0.8448
vn -0.2779 0.2890 0.9161
vn -0.3651 0.6326 0.6831
vn -0.4162 0.4696 0.7786
vn -0.4513 0.2890 0.8443
vn -0.4691 0.0976 0.8777
vn -0.0188 0.9954 -0.0943
vn -0.0278 0.9590 -0.2821
vn -0.2231 0.8810 0.4173
vn -0.2999 0.7715 0.5611
vn -0.2665 0.9575 0.1104
vn -0.3002 0.8810 0.3658
vn -0.4036 0.7715 0.4918
vn -0.4913 0.6326 0.5987
vn -0.5601 0.4696 0.6825
vn -0.6073 0.2890 0.7400
vn -0.6314 0.0976 0.7693
vn -0.5987 0.6326 0.4913
vn -0.6825 0.4696 0.5601
vn -0.7400 0.2890 0.6073
vn -0.7693 0.0975 0.6314
vn -0.3658 0.8810 0.3002
vn -0.4918 0.7715 0.4036
vn -0.4173 0.8810 0.2231
vn -0.5611 0.7715 0.2999
vn -0.6831 0.6326 0.3651
vn -0.7786 0.4696 0.4162
vn -0.8443 0.2890 0.4513
vn -0.8777 0.0976 0.4692
vn -0.8448 0.4696 0.2563
vn -0.9161 0.2890 0.2779
vn -0.9524 0.0976 0.2889
vn -0.4528 0.8810 0.1374
vn -0.6088 0.7715 0.1847
vn -0.7412 0.6326 0.2248
vn -0.4709 0.8810 0.0464
vn -0.6332 0.7715 0.0624
vn -0.7708 0.6326 0.0759
vn -0.8786 0.4696 0.0865
vn -0.9527 0.2890 0.0938
vn -0.9904 0.0976 0.0975
vn -0.8786 0.4696 -0.0865
vn -0.9527 0.2890 -0.0938
vn -0.9904 0.0976 -0.0975
vn 0.0845 0.9958 -0.0350
vn -0.4709 0.8810 -0.0464
vn -0.6332 0.7715 -0.0624
vn -0.7708 0.6326 -0.0759
vn -0.4528 0.8810 -0.1374
vn -0.6088 0.7715 -0.1847
vn -0.7412 0.6326 -0.2248
vn -0.8448 0.4696 -0.2563
vn -0.9161 0.2890 -0.2779
vn -0.9524 0.0976 -0.2889
vn -0.1603 0.9575 -0.2399
vn -0.8443 0.2890 -0.4513
vn -0.8777 0.0975 -0.4691
vn -0.4173 0.8810 -0.2230
vn -0.5611 0.7715 -0.2999
vn -0.6831 0.6326 -0.3651
vn -0.7786 0.4696 -0.4162
vn -0.4918 0.7715 -0.4036
vn -0.5987 0.6326 -0.4913
vn -0.6825 0.4696 -0.5601
vn -0.7400 0.2890 -0.6073
vn -0.7693 0.0976 -0.6314
vn -0.1799 -0.9590 -0.2192
vn -0.3658 0.8810 -0.3002
vn -0.6314 0.0975 -0.7693
vn -0.3002 0.8810 -0.3658
vn -0.4036 0.7715 -0.4918
vn -0.4913 0.6326 -0.5987
vn -0.5601 0.4696 -0.6825
vn -0.6073 0.2890 -0.7400
vn -0.2999 0.7715 -0.5611
vn -0.3651 0.6326 -0.6831
vn -0.4162 0.4696 -0.7786
vn -0.4513 0.2890 -0.8443
vn -0.4691 0.0975 -0.8777
vn -0.2231 0.8810 -0.4173
vn -0.2889 0.0975 -0.9524
vn -0.2830 -0.9575 0.0563
vn -0.1374 0.8810 -0.4528
vn -0.1847 0.7715 -0.6088
vn -0.2248 0.6326 -0.7412
vn -0.2563 0.4696 -0.8448
vn -0.2779 0.2890 -0.9161
vn -0.0759 0.6326 -0.7708
vn -0.0865 0.4696 -0.8786
vn -0.0938 0.2890 -0.9527
vn -0.0975 0.0975 -0.9904
vn -0.0464 0.8810 -0.4709
vn -0.0624 0.7715 -0.6332
vn -0.0624 -0.7715 -0.6332
vn -0.0759 -0.6326 -0.7708
vn -0.0865 -0.4696 -0.8786
vn -0.0938 -0.2890 -0.9527
vn -0.0975 -0.0975 -0.9904
vn -0.0464 -0.8810 -0.4709
vn -0.1374 -0.8810 -0.4528
vn -0.1847 -0.7715 -0.6088
vn -0.2248 -0.6326 -0.7412
vn -0.2563 -0.4696 -0.8448
vn -0.2779 -0.2890 -0.9161
vn -0.2889 -0.0975 -0.9524
vn -0.4513 -0.2890 -0.8443
vn -0.4691 -0.0975 -0.8777
vn 0.2830 -0.9575 -0.0563
vn -0.2230 -0.8810 -0.4173
vn -0.2999 -0.7715 -0.5611
vn -0.3651 -0.6326 -0.6831
vn -0.4162 -0.4696 -0.7786
vn -0.4036 -0.7715 -0.4918
vn -0.4913 -0.6326 -0.5987
vn -0.5601 -0.4696 -0.6825
vn -0.6073 -0.2890 -0.7400
vn -0.6314 -0.0975 -0.7693
vn -0.3002 -0.8810 -0.3658
vn -0.7693 -0.0975 -0.6314
vn -0.3658 -0.8810 -0.3002
vn -0.4918 -0.7715 -0.4036
vn -0.5987 -0.6326 -0.4913
vn -0.6825 -0.4696 -0.5601
vn -0.7400 -0.2890 -0.6073
vn -0.5611 -0.7715 -0.2999
vn -0.6831 -0.6326 -0.3651
vn -0.7786 -0.4696 -0.4162
vn -0.8443 -0.2890 -0.4513
vn -0.8777 -0.0975 -0.4691
vn 0.2830 0.9575 0.0563
vn -0.4173 -0.8810 -0.2230
vn -0.9524 -0.0975 -0.2889
vn -0.4528 -0.8810 -0.1374
vn -0.6088 -0.7715 -0.1847
vn -0.7412 -0.6326 -0.2248
vn -0.8448 -0.4696 -0.2563
vn -0.9161 -0.2890 -0.2779
vn -0.7708 -0.6326 -0.0759
vn -0.8786 -0.4696 -0.0865
vn -0.9527 -0.2890 -0.0938
vn -0.9904 -0.0975 -0.0975
vn 0.0503 -0.9959 0.0753
vn 0.1336 0.9590 0.2500
vn -0.4709 -0.8810 -0.0464
vn -0.6332 -0.7715 -0.0624
vn -0.4709 -0.8810 0.0464
vn -0.6332 -0.7715 0.0624
vn -0.7708 -0.6326 0.0759
vn -0.8786 -0.4696 0.0865
vn -0.9527 -0.2890 0.0938
vn -0.9904 -0.0975 0.0975
vn -0.0625 -0.9951 0.0761
vn -0.8448 -0.4696 0.2563
vn -0.9161 -0.2890 0.2779
vn -0.9524 -0.0975 0.2889
vn -0.4528 -0.8810 0.1374
vn -0.6088 -0.7715 0.1847
vn -0.7412 -0.6326 0.2248
vn 0.1104 -0.9575 0.2665
vn -0.4173 -0.8810 0.2231
vn -0.5611 -0.7715 0.2999
vn -0.6831 -0.6326 0.3651
vn -0.7786 -0.4696 0.4162
vn -0.8443 -0.2890 0.4513
vn -0.8777 -0.0976 0.4691
vn -0.6825 -0.4696 0.5601
vn -0.7400 -0.2890 0.6073
vn -0.7693 -0.0976 0.6314
vn -0.3658 -0.8810 0.3002
vn -0.4918 -0.7715 0.4036
vn -0.5987 -0.6326 0.4913
vn -0.3002 -0.8810 0.3658
vn -0.4036 -0.7715 0.4918
vn -0.4913 -0.6326 0.5987
vn -0.5601 -0.4696 0.6825
vn -0.6073 -0.2890 0.7400
vn -0.6314 -0.0976 0.7693
vn 0.0094 -0.9954 -0.0958
vn 0.1613 -0.9569 -0.2414
vn -0.4513 -0.2890 0.8443
vn -0.4691 -0.0976 0.8777
vn -0.2230 -0.8810 0.4173
vn -0.2999 -0.7715 0.5611
vn -0.3651 -0.6326 0.6831
vn -0.4162 -0.4696 0.7786
vn -0.1374 -0.8810 0.4528
vn -0.1847 -0.7715 0.6088
vn -0.2248 -0.6326 0.7412
vn -0.2563 -0.4696 0.8448
vn -0.2779 -0.2890 0.9161
vn -0.2889 -0.0976 0.9524
vn -0.2713 -0.9590 -0.0823
vn 0.2713 0.9590 -0.0823
vn -0.0938 -0.2890 0.9527
vn -0.0975 -0.0976 0.9904
vn -0.0858 -0.9957 -0.0355
vn -0.0464 -0.8810 0.4709
vn -0.0624 -0.7715 0.6332
vn -0.0759 -0.6326 0.7708
vn -0.0865 -0.4696 0.8786
vn 0.0624 -0.7715 0.6332
vn 0.0759 -0.6326 0.7708
vn 0.0865 -0.4696 0.8786
vn 0.0938 -0.2890 0.9527
vn 0.0975 -0.0976 0.9904
vn 0.0464 -0.8810 0.4709
vn 0.2889 -0.0976 0.9524
vn 0.2399 0.9575 0.1603
vn 0.1374 -0.8810 0.4528
vn 0.1847 -0.7715 0.6088
vn 0.2248 -0.6326 0.7412
vn 0.2563 -0.4696 0.8448
vn 0.2779 -0.2890 0.9161
vn 0.3651 -0.6326 0.6831
vn 0.4162 -0.4696 0.7786
vn 0.4513 -0.2890 0.8443
vn 0.4691 -0.0976 0.8777
vn 0.2230 -0.8810 0.4173
vn 0.2999 -0.7715 0.5611
vn -0.0923 0.9950 -0.0382
vn 0.3002 -0.8810 0.3658
vn 0.4036 -0.7715 0.4918
vn 0.4913 -0.6326 0.5987
vn 0.5601 -0.4696 0.6825
vn 0.6073 -0.2890 0.7400
vn 0.6314 -0.0976 0.7693
vn 0.5987 -0.6326 0.4913
vn 0.6825 -0.4696 0.5601
vn 0.7400 -0.2890 0.6073
vn 0.7693 -0.0975 0.6314
vn 0.3658 -0.8810 0.3002
vn 0.4918 -0.7715 0.4036
vn 0.2399 -0.9575 -0.1603
vn 0.4173 -0.8810 0.2230
vn 0.5611 -0.7715 0.2999
vn 0.6831 -0.6326 0.3651
vn 0.7786 -0.4696 0.4162
vn 0.8443 -0.2890 0.4513
vn 0.8777 -0.0976 0.4692
vn -0.0647 0.9958 0.0647
vn 0.8448 -0.4696 0.2563
vn 0.9161 -0.2890 0.2779
vn 0.9524 -0.0976 0.2889
vn 0.4528 -0.8810 0.1374
vn 0.6088 -0.7715 0.1847
vn 0.7412 -0.6326 0.2248
vn -0.2500 0.9590 -0.1336
vn 0.4709 -0.8810 0.0464
vn 0.6332 -0.7715 0.0624
vn 0.7708 -0.6326 0.0759
vn 0.8786 -0.4696 0.0865
vn 0.9527 -0.2890 0.0938
vn 0.9904 -0.0976 0.0975
vn 0.8786 -0.4696 -0.0865
vn 0.9527 -0.2890 -0.0938
vn 0.9904 -0.0975 -0.0976
vn 0.1111 0.9569 -0.2682
vn 0.4709 -0.8810 -0.0464
vn 0.6332 -0.7715 -0.0624
vn 0.7708 -0.6326 -0.0759
vn 0.4528 -0.8810 -0.1374
vn 0.6088 -0.7715 -0.1847
vn 0.7412 -0.6326 -0.2248
vn 0.8448 -0.4696 -0.2563
vn 0.9161 -0.2890 -0.2779
vn 0.9524 -0.0976 -0.2889
vn 0.8443 -0.2890 -0.4513
vn 0.8777 -0.0975 -0.4692
vn 0.4173 -0.8810 -0.2231
vn 0.5611 -0.7715 -0.2999
vn 0.6831 -0.6326 -0.3651
vn 0.7786 -0.4696 -0.4162
vn 0.4918 -0.7715 -0.4036
vn 0.5987 -0.6326 -0.4913
vn 0.6825 -0.4696 -0.5601
vn 0.7400 -0.2890 -0.6073
vn 0.7693 -0.0975 -0.6314
vn 0.3658 -0.8810 -0.3002
vn 0.6314 -0.0975 -0.7693
vn -0.0563 -0.9575 -0.2830
vn 0.3002 -0.8810 -0.3658
vn 0.4036 -0.7715 -0.4918
vn 0.4913 -0.6326 -0.5987
vn 0.5601 -0.4696 -0.6825
vn 0.6073 -0.2890 -0.7400
vn 0.2999 -0.7715 -0.5611
vn 0.3651 -0.6326 -0.6831
vn 0.4162 -0.4696 -0.7786
vn 0.4513 -0.2890 -0.8443
vn 0.4691 -0.0975 -0.8777
vn 0.2230 -0.8810 -0.4173
vn 0.2889 -0.0975 -0.9524
vn 0.0563 -0.9575 -0.2830
vn 0.1374 -0.8810 -0.4528
vn 0.1847 -0.7715 -0.6088
vn 0.2248 -0.6326 -0.7412
vn 0.2563 -0.4696 -0.8448
vn 0.2779 -0.2890 -0.9161
vn 0.0759 -0.6326 -0.7708
vn 0.0865 -0.4696 -0.8786
vn 0.0938 -0.2890 -0.9527
vn 0.0976 -0.0975 -0.9904
vn 0.0464 -0.8810 -0.4709
vn 0.0624 -0.7715 -0.6332
usemtl None
s off
f 482/1/1 259/2/1 1/3/1 481/4/1
f 481/4/2 1/3/2 2/5/2 474/6/2
f 474/6/3 2/5/3 59/7/3 466/8/3
f 466/8/4 59/7/4 66/9/4 458/10/4
f 458/10/5 66/9/5 74/11/5 450/12/5
f 450/12/6 74/11/6 81/13/6 3/14/6
f 3/14/7 81/13/7 88/15/7 436/16/7
f 436/16/8 88/15/8 96/17/8 4/18/8
f 4/18/9 96/17/9 103/19/9 5/20/9
f 5/20/10 103/19/10 111/21/10 6/22/10
f 6/22/11 111/21/11 118/23/11 408/24/11
f 408/24/12 118/23/12 126/25/12 400/26/12
f 400/26/13 126/25/13 133/27/13 7/28/13
f 7/28/14 133/27/14 9/29/14 8/30/14
f 8/30/15 9/29/15 147/31/15 10/32/15
f 10/32/16 147/31/16 12/33/16 11/34/16
f 11/34/17 12/33/17 161/35/17 13/36/17
f 13/36/18 161/35/18 15/37/18 14/38/18
f 14/38/19 15/37/19 17/39/19 16/40/19
f 16/40/20 17/39/20 19/41/20 18/42/20
f 18/42/21 19/41/21 188/43/21 20/44/21
f 20/44/22 188/43/22 22/45/22 21/46/22
f 21/46/23 22/45/23 24/47/23 23/48/23
f 23/48/24 24/47/24 25/49/24 322/50/24
f 322/50/25 25/49/25 27/51/25 26/52/25
f 26/52/26 27/51/26 223/53/26 28/54/26
f 28/54/27 223/53/27 230/55/27 302/56/27
f 302/56/28 230/55/28 30/57/28 29/58/28
f 29/58/29 30/57/29 244/59/29 288/60/29
f 288/60/30 244/59/30 252/61/30 281/62/30
f 281/62/31 252/61/31 31/63/31 273/64/31
f 273/64/32 31/63/32 259/65/32 482/66/32
f 34/67/33 33/68/33 40/69/33 41/70/33
f 35/71/34 34/67/34 41/70/34 42/72/34
f 36/73/35 35/71/35 42/72/35 43/74/35
f 37/75/36 36/73/36 43/74/36 44/76/36
f 259/77/37 37/75/37 44/76/37 1/78/37
f 119/79/38 104/80/38 189/81/38 148/82/38 140/83/38
f 342/84/39 361/85/39 362/86/39 355/87/39 349/88/39 343/89/39
f 33/68/40 32/90/40 39/91/40 40/69/40
f 40/69/41 39/91/41 46/92/41 47/93/41
f 41/70/42 40/69/42 47/93/42 48/94/42
f 42/72/43 41/70/43 48/94/43 49/95/43
f 43/74/44 42/72/44 49/95/44 50/96/44
f 44/76/45 43/74/45 50/96/45 51/97/45
f 1/78/46 44/76/46 51/97/46 2/98/46
f 203/99/47 210/100/47 211/101/47 204/102/47 197/103/47 196/104/47
f 51/97/48 50/96/48 57/105/48 58/106/48
f 2/98/49 51/97/49 58/106/49 59/107/49
f 47/93/50 46/92/50 53/108/50 54/109/50
f 48/94/51 47/93/51 54/109/51 55/110/51
f 49/95/52 48/94/52 55/110/52 56/111/52
f 50/96/53 49/95/53 56/111/53 57/105/53
f 55/110/54 54/109/54 61/112/54 62/113/54
f 56/111/55 55/110/55 62/113/55 63/114/55
f 57/105/56 56/111/56 63/114/56 64/115/56
f 58/106/57 57/105/57 64/115/57 65/116/57
f 59/107/58 58/106/58 65/116/58 66/117/58
f 329/118/59 342/84/59 343/89/59 336/119/59 330/120/59
f 54/109/60 53/108/60 60/121/60 61/112/60
f 66/117/61 65/116/61 73/122/61 74/123/61
f 61/112/62 60/121/62 68/124/62 69/125/62
f 62/113/63 61/112/63 69/125/63 70/126/63
f 63/114/64 62/113/64 70/126/64 71/127/64
f 64/115/65 63/114/65 71/127/65 72/128/65
f 65/116/66 64/115/66 72/128/66 73/122/66
f 70/126/67 69/125/67 76/129/67 77/130/67
f 71/127/68 70/126/68 77/130/68 78/131/68
f 72/128/69 71/127/69 78/131/69 79/132/69
f 73/122/70 72/128/70 79/132/70 80/133/70
f 74/123/71 73/122/71 80/133/71 81/134/71
f 401/135/72 416/136/72 423/137/72 424/138/72 417/139/72 410/140/72 402/141/72
f 69/125/73 68/124/73 75/142/73 76/129/73
f 81/134/74 80/133/74 87/143/74 88/144/74
f 76/129/75 75/142/75 82/145/75 83/146/75
f 77/130/76 76/129/76 83/146/76 84/147/76
f 78/131/77 77/130/77 84/147/77 85/148/77
f 79/132/78 78/131/78 85/148/78 86/149/78
f 80/133/79 79/132/79 86/149/79 87/143/79
f 85/148/80 84/147/80 92/150/80 93/151/80
f 86/149/81 85/148/81 93/151/81 94/152/81
f 87/143/82 86/149/82 94/152/82 95/153/82
f 88/144/83 87/143/83 95/153/83 96/154/83
f 83/146/84 82/145/84 90/155/84 91/156/84
f 84/147/85 83/146/85 91/156/85 92/150/85
f 387/157/86 401/135/86 402/141/86 394/158/86 388/159/86
f 91/156/87 90/155/87 97/160/87 98/161/87
f 92/150/88 91/156/88 98/161/88 99/162/88
f 93/151/89 92/150/89 99/162/89 100/163/89
f 94/152/90 93/151/90 100/163/90 101/164/90
f 95/153/91 94/152/91 101/164/91 102/165/91
f 96/154/92 95/153/92 102/165/92 103/166/92
f 101/164/93 100/163/93 108/167/93 109/168/93
f 102/165/94 101/164/94 109/168/94 110/169/94
f 103/166/95 102/165/95 110/169/95 111/170/95
f 98/161/96 97/160/96 105/171/96 106/172/96
f 99/162/97 98/161/97 106/172/97 107/173/97
f 100/163/98 99/162/98 107/173/98 108/167/98
f 106/172/99 105/171/99 112/174/99 113/175/99
f 107/173/100 106/172/100 113/175/100 114/176/100
f 108/167/101 107/173/101 114/176/101 115/177/101
f 109/168/102 108/167/102 115/177/102 116/178/102
f 110/169/103 109/168/103 116/178/103 117/179/103
f 111/170/104 110/169/104 117/179/104 118/180/104
f 116/178/105 115/177/105 123/181/105 124/182/105
f 117/179/106 116/178/106 124/182/106 125/183/106
f 118/180/107 117/179/107 125/183/107 126/184/107
f 113/175/108 112/174/108 120/185/108 121/186/108
f 114/176/109 113/175/109 121/186/109 122/187/109
f 115/177/110 114/176/110 122/187/110 123/181/110
f 121/186/111 120/185/111 127/188/111 128/189/111
f 122/187/112 121/186/112 128/189/112 129/190/112
f 123/181/113 122/187/113 129/190/113 130/191/113
f 124/182/114 123/181/114 130/191/114 131/192/114
f 125/183/115 124/182/115 131/192/115 132/193/115
f 126/184/116 125/183/116 132/193/116 133/194/116
f 148/82/117 162/195/117 163/196/117 155/197/117 149/198/117 141/199/117 140/83/117
f 132/193/118 131/192/118 138/200/118 139/201/118
f 133/194/119 132/193/119 139/201/119 9/202/119
f 52/203/120 67/204/120 68/124/120 60/121/120 53/108/120
f 128/189/121 127/188/121 134/205/121 135/206/121
f 129/190/122 128/189/122 135/206/122 136/207/122
f 130/191/123 129/190/123 136/207/123 137/208/123
f 131/192/124 130/191/124 137/208/124 138/200/124
f 135/206/125 134/205/125 141/199/125 142/209/125
f 136/207/126 135/206/126 142/209/126 143/210/126
f 137/208/127 136/207/127 143/210/127 144/211/127
f 138/200/128 137/208/128 144/211/128 145/212/128
f 139/201/129 138/200/129 145/212/129 146/213/129
f 9/202/130 139/201/130 146/213/130 147/214/130
f 409/215/131 459/216/131 451/217/131 437/218/131 423/137/131 416/136/131
f 146/213/132 145/212/132 153/219/132 154/220/132
f 147/214/133 146/213/133 154/220/133 12/221/133
f 162/195/134 181/222/134 182/223/134 175/224/134 169/225/134 163/196/134
f 142/209/135 141/199/135 149/198/135 150/226/135
f 143/210/136 142/209/136 150/226/136 151/227/136
f 144/211/137 143/210/137 151/227/137 152/228/137
f 145/212/138 144/211/138 152/228/138 153/219/138
f 151/227/139 150/226/139 156/229/139 157/230/139
f 152/228/140 151/227/140 157/230/140 158/231/140
f 153/219/141 152/228/141 158/231/141 159/232/141
f 154/220/142 153/219/142 159/232/142 160/233/142
f 12/221/143 154/220/143 160/233/143 161/234/143
f 361/85/144 374/235/144 375/236/144 368/237/144 362/86/144
f 150/226/145 149/198/145 155/197/145 156/229/145
f 161/234/146 160/233/146 168/238/146 15/239/146
f 156/229/147 155/197/147 163/196/147 164/240/147
f 157/230/148 156/229/148 164/240/148 165/241/148
f 158/231/149 157/230/149 165/241/149 166/242/149
f 159/232/150 158/231/150 166/242/150 167/243/150
f 160/233/151 159/232/151 167/243/151 168/238/151
f 166/242/152 165/241/152 171/244/152 172/245/152
f 167/243/153 166/242/153 172/245/153 173/246/153
f 168/238/154 167/243/154 173/246/154 174/247/154
f 15/239/155 168/238/155 174/247/155 17/248/155
f 38/249/156 245/250/156 231/251/156 189/252/156 45/253/156
f 245/250/157 38/249/157 39/91/157 32/90/157 253/254/157 246/255/157
f 164/240/158 163/196/158 169/225/158 170/256/158
f 165/241/159 164/240/159 170/256/159 171/244/159
f 181/222/160 196/104/160 197/103/160 190/257/160 182/223/160
f 170/256/161 169/225/161 175/224/161 176/258/161
f 171/244/162 170/256/162 176/258/162 177/259/162
f 172/245/163 171/244/163 177/259/163 178/260/163
f 173/246/164 172/245/164 178/260/164 179/261/164
f 174/247/165 173/246/165 179/261/165 180/262/165
f 17/248/166 174/247/166 180/262/166 19/263/166
f 178/260/167 177/259/167 184/264/167 185/265/167
f 179/261/168 178/260/168 185/265/168 186/266/168
f 180/262/169 179/261/169 186/266/169 187/267/169
f 19/263/170 180/262/170 187/267/170 188/268/170
f 176/258/171 175/224/171 182/223/171 183/269/171
f 177/259/172 176/258/172 183/269/172 184/264/172
f 183/269/173 182/223/173 190/257/173 191/270/173
f 184/264/174 183/269/174 191/270/174 192/271/174
f 185/265/175 184/264/175 192/271/175 193/272/175
f 186/266/176 185/265/176 193/272/176 194/273/176
f 187/267/177 186/266/177 194/273/177 195/274/177
f 188/268/178 187/267/178 195/274/178 22/275/178
f 194/273/179 193/272/179 200/276/179 201/277/179
f 195/274/180 194/273/180 201/277/180 202/278/180
f 22/275/181 195/274/181 202/278/181 24/279/181
f 191/270/182 190/257/182 197/103/182 198/280/182
f 192/271/183 191/270/183 198/280/183 199/281/183
f 193/272/184 192/271/184 199/281/184 200/276/184
f 198/280/185 197/103/185 204/102/185 205/282/185
f 199/281/186 198/280/186 205/282/186 206/283/186
f 200/276/187 199/281/187 206/283/187 207/284/187
f 201/277/188 200/276/188 207/284/188 208/285/188
f 202/278/189 201/277/189 208/285/189 209/286/189
f 24/279/190 202/278/190 209/286/190 25/287/190
f 208/288/191 207/289/191 214/290/191 215/291/191
f 209/292/192 208/288/192 215/291/192 216/293/192
f 25/294/193 209/292/193 216/293/193 27/295/193
f 52/203/194 45/253/194 189/296/194 104/80/194 89/297/194 67/204/194
f 205/298/195 204/299/195 211/101/195 212/300/195
f 206/301/196 205/298/196 212/300/196 213/302/196
f 207/289/197 206/301/197 213/302/197 214/290/197
f 212/300/198 211/101/198 217/303/198 218/304/198
f 213/302/199 212/300/199 218/304/199 219/305/199
f 214/290/200 213/302/200 219/305/200 220/306/200
f 215/291/201 214/290/201 220/306/201 221/307/201
f 216/293/202 215/291/202 221/307/202 222/308/202
f 27/295/203 216/293/203 222/308/203 223/309/203
f 231/251/204 245/250/204 246/255/204 238/310/204 232/311/204
f 222/308/205 221/307/205 228/312/205 229/313/205
f 223/309/206 222/308/206 229/313/206 230/314/206
f 218/304/207 217/303/207 224/315/207 225/316/207
f 219/305/208 218/304/208 225/316/208 226/317/208
f 220/306/209 219/305/209 226/317/209 227/318/209
f 221/307/210 220/306/210 227/318/210 228/312/210
f 226/317/211 225/316/211 233/319/211 234/320/211
f 227/318/212 226/317/212 234/320/212 235/321/212
f 228/312/213 227/318/213 235/321/213 236/322/213
f 229/313/214 228/312/214 236/322/214 237/323/214
f 230/314/215 229/313/215 237/323/215 30/324/215
f 274/325/216 295/326/216 296/327/216 289/328/216 282/329/216 275/330/216
f 225/316/217 224/315/217 232/311/217 233/319/217
f 30/324/218 237/323/218 243/331/218 244/332/218
f 233/319/219 232/311/219 238/310/219 239/333/219
f 234/320/220 233/319/220 239/333/220 240/334/220
f 235/321/221 234/320/221 240/334/221 241/335/221
f 236/322/222 235/321/222 241/335/222 242/336/222
f 237/323/223 236/322/223 242/336/223 243/331/223
f 240/334/224 239/333/224 247/337/224 248/338/224
f 241/335/225 240/334/225 248/338/225 249/339/225
f 242/336/226 241/335/226 249/339/226 250/340/226
f 243/331/227 242/336/227 250/340/227 251/341/227
f 244/332/228 243/331/228 251/341/228 252/342/228
f 239/333/229 238/310/229 246/255/229 247/337/229
f 252/342/230 251/341/230 258/343/230 31/344/230
f 315/345/231 329/118/231 330/120/231 323/346/231 316/347/231
f 247/337/232 246/255/232 253/254/232 254/348/232
f 248/338/233 247/337/233 254/348/233 255/349/233
f 249/339/234 248/338/234 255/349/234 256/350/234
f 250/340/235 249/339/235 256/350/235 257/351/235
f 251/341/236 250/340/236 257/351/236 258/343/236
f 256/350/237 255/349/237 34/67/237 35/71/237
f 257/351/238 256/350/238 35/71/238 36/73/238
f 258/343/239 257/351/239 36/73/239 37/75/239
f 31/344/240 258/343/240 37/75/240 259/77/240
f 254/348/241 253/254/241 32/90/241 33/68/241
f 255/349/242 254/348/242 33/68/242 34/67/242
f 263/352/243 262/353/243 268/354/243 269/355/243
f 264/356/244 263/352/244 269/355/244 270/357/244
f 265/358/245 264/356/245 270/357/245 271/359/245
f 266/360/246 265/358/246 271/359/246 272/361/246
f 482/362/247 266/360/247 272/361/247 273/363/247
f 262/353/248 261/364/248 267/365/248 268/354/248
f 268/354/249 267/365/249 275/330/249 276/366/249
f 269/355/250 268/354/250 276/366/250 277/367/250
f 270/357/251 269/355/251 277/367/251 278/368/251
f 271/359/252 270/357/252 278/368/252 279/369/252
f 272/361/253 271/359/253 279/369/253 280/370/253
f 273/363/254 272/361/254 280/370/254 281/371/254
f 280/370/255 279/369/255 286/372/255 287/373/255
f 281/371/256 280/370/256 287/373/256 288/374/256
f 423/375/257 437/218/257 438/376/257 430/377/257 424/378/257
f 276/366/258 275/330/258 282/329/258 283/379/258
f 277/367/259 276/366/259 283/379/259 284/380/259
f 278/368/260 277/367/260 284/380/260 285/381/260
f 279/369/261 278/368/261 285/381/261 286/372/261
f 284/380/262 283/379/262 290/382/262 291/383/262
f 285/381/263 284/380/263 291/383/263 292/384/263
f 286/372/264 285/381/264 292/384/264 293/385/264
f 287/373/265 286/372/265 293/385/265 294/386/265
f 288/374/266 287/373/266 294/386/266 29/387/266
f 283/379/267 282/329/267 289/328/267 290/382/267
f 29/387/268 294/386/268 301/388/268 302/389/268
f 290/382/269 289/328/269 296/327/269 297/390/269
f 291/383/270 290/382/270 297/390/270 298/391/270
f 292/384/271 291/383/271 298/391/271 299/392/271
f 293/385/272 292/384/272 299/392/272 300/393/272
f 294/386/273 293/385/273 300/393/273 301/388/273
f 298/391/274 297/390/274 304/394/274 305/395/274
f 299/392/275 298/391/275 305/395/275 306/396/275
f 300/393/276 299/392/276 306/396/276 307/397/276
f 301/388/277 300/393/277 307/397/277 308/398/277
f 302/389/278 301/388/278 308/398/278 28/399/278
f 89/297/279 104/80/279 105/171/279 97/160/279 90/155/279
f 297/390/280 296/327/280 303/400/280 304/394/280
f 28/399/281 308/398/281 314/401/281 26/402/281
f 304/394/282 303/400/282 309/403/282 310/404/282
f 305/395/283 304/394/283 310/404/283 311/405/283
f 306/396/284 305/395/284 311/405/284 312/406/284
f 307/397/285 306/396/285 312/406/285 313/407/285
f 308/398/286 307/397/286 313/407/286 314/401/286
f 312/406/287 311/405/287 318/408/287 319/409/287
f 313/407/288 312/406/288 319/409/288 320/410/288
f 314/401/289 313/407/289 320/410/289 321/411/289
f 26/402/290 314/401/290 321/411/290 322/412/290
f 409/413/291 416/136/291 401/135/291 387/157/291 374/235/291 361/85/291
f 119/79/292 140/83/292 141/199/292 134/205/292 127/188/292 120/185/292
f 310/404/293 309/403/293 316/347/293 317/414/293
f 311/405/294 310/404/294 317/414/294 318/408/294
f 317/414/295 316/347/295 323/346/295 324/415/295
f 318/408/296 317/414/296 324/415/296 325/416/296
f 319/409/297 318/408/297 325/416/297 326/417/297
f 320/410/298 319/409/298 326/417/298 327/418/298
f 321/411/299 320/410/299 327/418/299 328/419/299
f 322/412/300 321/411/300 328/419/300 23/420/300
f 342/84/301 329/118/301 409/421/301 361/85/301
f 327/418/302 326/417/302 333/422/302 334/423/302
f 328/419/303 327/418/303 334/423/303 335/424/303
f 23/420/304 328/419/304 335/424/304 21/425/304
f 324/415/305 323/346/305 330/120/305 331/426/305
f 325/416/306 324/415/306 331/426/306 332/427/306
f 326/417/307 325/416/307 332/427/307 333/422/307
f 374/235/308 387/157/308 388/159/308 381/428/308 375/236/308
f 331/426/309 330/120/309 336/119/309 337/429/309
f 332/427/310 331/426/310 337/429/310 338/430/310
f 333/422/311 332/427/311 338/430/311 339/431/311
f 334/423/312 333/422/312 339/431/312 340/432/312
f 335/424/313 334/423/313 340/432/313 341/433/313
f 21/425/314 335/424/314 341/433/314 20/434/314
f 340/432/315 339/431/315 346/435/315 347/436/315
f 341/433/316 340/432/316 347/436/316 348/437/316
f 20/434/317 341/433/317 348/437/317 18/42/317
f 337/429/318 336/119/318 343/89/318 344/438/318
f 338/430/319 337/429/319 344/438/319 345/439/319
f 339/431/320 338/430/320 345/439/320 346/435/320
f 344/438/321 343/89/321 349/88/321 350/440/321
f 345/439/322 344/438/322 350/440/322 351/441/322
f 346/435/323 345/439/323 351/441/323 352/442/323
f 347/436/324 346/435/324 352/442/324 353/443/324
f 348/437/325 347/436/325 353/443/325 354/444/325
f 18/42/326 348/437/326 354/444/326 16/445/326
f 260/446/327 467/447/327 459/216/327 409/448/327 274/325/327
f 459/216/328 467/447/328 468/449/328 460/450/328 452/451/328 451/217/328
f 354/444/329 353/443/329 359/452/329 360/453/329
f 16/445/330 354/444/330 360/453/330 14/454/330
f 350/440/331 349/88/331 355/87/331 356/455/331
f 351/441/332 350/440/332 356/455/332 357/456/332
f 352/442/333 351/441/333 357/456/333 358/457/333
f 353/443/334 352/442/334 358/457/334 359/452/334
f 356/455/335 355/87/335 362/86/335 363/458/335
f 357/456/336 356/455/336 363/458/336 364/459/336
f 358/457/337 357/456/337 364/459/337 365/460/337
f 359/452/338 358/457/338 365/460/338 366/461/338
f 360/453/339 359/452/339 366/461/339 367/462/339
f 14/454/340 360/453/340 367/462/340 13/463/340
f 295/326/341 315/345/341 316/347/341 309/403/341 303/400/341 296/327/341
f 67/204/342 89/297/342 90/155/342 82/145/342 75/142/342 68/124/342
f 367/462/343 366/461/343 372/464/343 373/465/343
f 13/463/344 367/462/344 373/465/344 11/466/344
f 409/467/345 329/118/345 315/345/345 295/326/345 274/325/345
f 363/458/346 362/86/346 368/237/346 369/468/346
f 364/459/347 363/458/347 369/468/347 370/469/347
f 365/460/348 364/459/348 370/469/348 371/470/348
f 366/461/349 365/460/349 371/470/349 372/464/349
f 370/469/350 369/468/350 376/471/350 377/472/350
f 371/470/351 370/469/351 377/472/351 378/473/351
f 372/464/352 371/470/352 378/473/352 379/474/352
f 373/465/353 372/464/353 379/474/353 380/475/353
f 11/466/354 373/465/354 380/475/354 10/476/354
f 369/468/355 368/237/355 375/236/355 376/471/355
f 10/476/356 380/475/356 386/477/356 8/478/356
f 104/80/357 119/79/357 120/185/357 112/174/357 105/171/357
f 376/471/358 375/236/358 381/428/358 382/479/358
f 377/472/359 376/471/359 382/479/359 383/480/359
f 378/473/360 377/472/360 383/480/360 384/481/360
f 379/474/361 378/473/361 384/481/361 385/482/361
f 380/475/362 379/474/362 385/482/362 386/477/362
f 384/481/363 383/480/363 390/483/363 391/484/363
f 385/482/364 384/481/364 391/484/364 392/485/364
f 386/477/365 385/482/365 392/485/365 393/486/365
f 8/478/366 386/477/366 393/486/366 7/487/366
f 382/479/367 381/428/367 388/159/367 389/488/367
f 383/480/368 382/479/368 389/488/368 390/483/368
f 189/489/369 231/251/369 210/100/369 203/99/369
f 389/488/370 388/159/370 394/158/370 395/490/370
f 390/483/371 389/488/371 395/490/371 396/491/371
f 391/484/372 390/483/372 396/491/372 397/492/372
f 392/485/373 391/484/373 397/492/373 398/493/373
f 393/486/374 392/485/374 398/493/374 399/494/374
f 7/487/375 393/486/375 399/494/375 400/495/375
f 397/492/376 396/491/376 404/496/376 405/497/376
f 398/493/377 397/492/377 405/497/377 406/498/377
f 399/494/378 398/493/378 406/498/378 407/499/378
f 400/495/379 399/494/379 407/499/379 408/500/379
f 395/490/380 394/158/380 402/141/380 403/501/380
f 396/491/381 395/490/381 403/501/381 404/496/381
f 437/218/382 451/217/382 452/451/382 444/502/382 438/376/382
f 403/501/383 402/141/383 410/140/383 411/503/383
f 404/496/384 403/501/384 411/503/384 412/504/384
f 405/497/385 404/496/385 412/504/385 413/505/385
f 406/498/386 405/497/386 413/505/386 414/506/386
f 407/499/387 406/498/387 414/506/387 415/507/387
f 408/500/388 407/499/388 415/507/388 6/508/388
f 189/509/389 203/510/389 196/104/389 181/222/389 162/195/389 148/82/389
f 414/506/390 413/505/390 420/511/390 421/512/390
f 415/507/391 414/506/391 421/512/391 422/513/391
f 6/508/392 415/507/392 422/513/392 5/514/392
f 411/503/393 410/140/393 417/139/393 418/515/393
f 412/504/394 411/503/394 418/515/394 419/516/394
f 413/505/395 412/504/395 419/516/395 420/511/395
f 210/100/396 231/251/396 232/311/396 224/315/396 217/303/396 211/101/396
f 418/515/397 417/139/397 424/138/397 425/517/397
f 419/516/398 418/515/398 425/517/398 426/518/398
f 420/511/399 419/516/399 426/518/399 427/519/399
f 421/512/400 420/511/400 427/519/400 428/520/400
f 422/513/401 421/512/401 428/520/401 429/521/401
f 5/514/402 422/513/402 429/521/402 4/522/402
f 428/523/403 427/524/403 433/525/403 434/526/403
f 429/527/404 428/523/404 434/526/404 435/528/404
f 4/529/405 429/527/405 435/528/405 436/530/405
f 45/253/406 52/203/406 53/108/406 46/92/406 39/91/406 38/249/406
f 425/531/407 424/378/407 430/377/407 431/532/407
f 426/533/408 425/531/408 431/532/408 432/534/408
f 427/524/409 426/533/409 432/534/409 433/525/409
f 431/532/410 430/377/410 438/376/410 439/535/410
f 432/534/411 431/532/411 439/535/411 440/536/411
f 433/525/412 432/534/412 440/536/412 441/537/412
f 434/526/413 433/525/413 441/537/413 442/538/413
f 435/528/414 434/526/414 442/538/414 443/539/414
f 436/530/415 435/528/415 443/539/415 3/540/415
f 443/539/416 442/538/416 448/541/416 449/542/416
f 3/540/417 443/539/417 449/542/417 450/543/417
f 439/535/418 438/376/418 444/502/418 445/544/418
f 440/536/419 439/535/419 445/544/419 446/545/419
f 441/537/420 440/536/420 446/545/420 447/546/420
f 442/538/421 441/537/421 447/546/421 448/541/421
f 446/545/422 445/544/422 453/547/422 454/548/422
f 447/546/423 446/545/423 454/548/423 455/549/423
f 448/541/424 447/546/424 455/549/424 456/550/424
f 449/542/425 448/541/425 456/550/425 457/551/425
f 450/543/426 449/542/426 457/551/426 458/10/426
f 445/544/427 444/502/427 452/451/427 453/547/427
f 458/10/428 457/551/428 465/552/428 466/553/428
f 260/446/429 274/325/429 275/330/429 267/365/429 261/364/429
f 453/547/430 452/451/430 460/450/430 461/554/430
f 454/548/431 453/547/431 461/554/431 462/555/431
f 455/549/432 454/548/432 462/555/432 463/556/432
f 456/550/433 455/549/433 463/556/433 464/557/433
f 457/551/434 456/550/434 464/557/434 465/552/434
f 462/555/435 461/554/435 469/558/435 470/559/435
f 463/556/436 462/555/436 470/559/436 471/560/436
f 464/557/437 463/556/437 471/560/437 472/561/437
f 465/552/438 464/557/438 472/561/438 473/562/438
f 466/553/439 465/552/439 473/562/439 474/563/439
f 461/554/440 460/450/440 468/449/440 469/558/440
f 474/563/441 473/562/441 480/564/441 481/565/441
f 467/447/442 260/446/442 261/364/442 475/566/442 468/449/442
f 469/558/443 468/449/443 475/566/443 476/567/443
f 470/559/444 469/558/444 476/567/444 477/568/444
f 471/560/445 470/559/445 477/568/445 478/569/445
f 472/561/446 471/560/446 478/569/446 479/570/446
f 473/562/447 472/561/447 479/570/447 480/564/447
f 478/569/448 477/568/448 263/352/448 264/356/448
f 479/570/449 478/569/449 264/356/449 265/358/449
f 480/564/450 479/570/450 265/358/450 266/360/450
f 481/565/451 480/564/451 266/360/451 482/362/451
f 476/567/452 475/566/452 261/364/452 262/353/452
f 477/568/453 476/567/453 262/353/453 263/352/453
